<svg width="82" height="105" viewBox="0 0 82 105" fill="none" xmlns="http://www.w3.org/2000/svg">
<path d="M37.6045 0.650195C39.7951 -0.171226 42.2014 -0.215599 44.4209 0.524218L44.6367 0.595507C45.3488 0.832897 46.0346 1.14441 46.6826 1.52324L77.7051 19.659C78.0905 19.8843 78.459 20.1379 78.8076 20.4168L79.2188 20.7459C80.3341 21.6382 81.1684 22.8342 81.6201 24.1893C81.8718 24.9446 82 25.7358 82 26.532V63.6814C82 65.225 81.6405 66.7481 80.9502 68.1287C80.2563 69.5164 79.2608 70.7137 78.0107 71.6385C71.35 76.5658 47.4904 94.0872 31.2666 104.334C30.8001 104.628 30.2447 104.76 29.709 104.808C29.1693 104.857 28.6154 104.824 28.125 104.762C27.6328 104.7 27.1915 104.607 26.874 104.53C26.7152 104.491 26.5863 104.456 26.4961 104.43C26.4512 104.418 26.4153 104.408 26.3906 104.4C26.3783 104.396 26.3682 104.394 26.3613 104.391C26.358 104.39 26.3555 104.389 26.3535 104.388C26.3525 104.388 26.3512 104.389 26.3506 104.388L26.3496 104.387L26.3223 104.38L26.2969 104.368C23.8888 103.298 22.6629 101.414 22.6113 99.2781C22.5607 97.1742 23.6512 94.9208 25.6592 93.0457C27.6258 91.2093 28.6321 89.4757 28.6875 87.9666C28.7408 86.5102 27.9077 85.0889 25.751 83.8436V83.8445L3.61621 71.1287C2.65123 70.5743 1.82732 69.8037 1.20996 68.8777C0.420944 67.6941 8.53076e-05 66.3032 0 64.8807V27.3553C1.555e-05 26.3402 0.182679 25.333 0.539062 24.3826C1.22163 22.5626 2.51023 21.033 4.1875 20.0506L36.0283 1.40019C36.5312 1.10565 37.0588 0.854832 37.6045 0.650195ZM40.9707 12.9109C39.5926 12.9109 38.238 13.2689 37.04 13.95L14.8936 26.5428C13.7377 27.2001 12.8037 28.1865 12.209 29.3758C11.7432 30.3075 11.5001 31.3351 11.5 32.3768V58.4246C11.5 59.4794 11.746 60.5202 12.2178 61.4637C12.8062 62.6405 13.7234 63.6215 14.8584 64.2869L41.2461 79.7557C41.9781 80.1847 42.8117 80.4109 43.6602 80.4109C44.6345 80.4109 45.5859 80.1129 46.3857 79.5564L67.1455 65.115C67.9502 64.5552 68.6427 63.8486 69.1865 63.033C70.043 61.7483 70.5 60.2381 70.5 58.6941V32.4305C70.5 31.346 70.2053 30.2813 69.6475 29.3514C69.1331 28.494 68.4116 27.7792 67.5498 27.2723L45.0029 14.0086C43.7808 13.2897 42.3885 12.9109 40.9707 12.9109Z" fill="url(#paint0_linear_656_2)"/>
<path d="M26 35.4104C22 28.9111 18.5002 30.4104 18.5 35.9097V57.9088C18.5 60.4088 22.1836 60.4531 24 57.9102C34 43.9102 50.5 46.4102 57.5 57.4102C59.0652 59.8698 63.4998 60.9088 63.4998 57.9088V35.9097C63.4998 30.9101 60.5 28.411 56 35.4104C48.9021 46.4505 30.6886 43.0286 26 35.4104Z" fill="url(#paint1_linear_656_2)"/>
<defs>
<linearGradient id="paint0_linear_656_2" x1="19.5" y1="9.91016" x2="53.5" y2="90.9102" gradientUnits="userSpaceOnUse">
<stop stop-color="#FFF3B9"/>
<stop offset="0.331731" stop-color="#CCC294"/>
<stop offset="0.677885" stop-color="#FFF1B2"/>
<stop offset="1" stop-color="#F5E392"/>
</linearGradient>
<linearGradient id="paint1_linear_656_2" x1="21" y1="33.4102" x2="58" y2="59.9102" gradientUnits="userSpaceOnUse">
<stop stop-color="#FFF3B9"/>
<stop offset="1" stop-color="#E0D085"/>
</linearGradient>
</defs>
</svg>
