<svg width="652" height="562" viewBox="0 0 652 562" fill="none" xmlns="http://www.w3.org/2000/svg">
<rect x="264" y="228" width="22" height="8" rx="1.2" fill="#363636"/>
<rect x="284" y="247" width="22" height="8" rx="1.2" fill="#363636"/>
<rect x="300" y="227" width="22" height="8" rx="1.2" fill="#363636"/>
<path d="M539.991 119V105.909H549.119V108.479H543.155V111.163H548.652V113.739H543.155V116.43H549.119V119H539.991ZM554.226 113.401V119H551.1V109.182H554.072V110.984H554.181C554.398 110.384 554.769 109.913 555.293 109.572C555.817 109.227 556.442 109.054 557.166 109.054C557.857 109.054 558.455 109.21 558.962 109.521C559.474 109.827 559.87 110.258 560.151 110.812C560.437 111.362 560.577 112.005 560.573 112.742V119H557.447V113.356C557.452 112.81 557.313 112.384 557.032 112.077C556.755 111.771 556.369 111.617 555.875 111.617C555.547 111.617 555.257 111.69 555.006 111.835C554.759 111.975 554.567 112.178 554.43 112.442C554.298 112.706 554.23 113.026 554.226 113.401ZM568.05 109.182V111.483H561.856V109.182H568.05ZM563.154 106.83H566.28V115.913C566.28 116.104 566.309 116.26 566.369 116.379C566.433 116.494 566.525 116.577 566.644 116.629C566.763 116.675 566.906 116.699 567.072 116.699C567.192 116.699 567.317 116.688 567.449 116.667C567.586 116.641 567.688 116.62 567.756 116.603L568.229 118.859C568.08 118.902 567.869 118.955 567.596 119.019C567.328 119.083 567.006 119.124 566.631 119.141C565.898 119.175 565.27 119.089 564.746 118.885C564.226 118.676 563.827 118.352 563.55 117.913C563.278 117.474 563.145 116.923 563.154 116.258V106.83ZM569.645 119V109.182H572.681V110.972H572.784C572.963 110.324 573.254 109.842 573.659 109.527C574.064 109.207 574.535 109.048 575.072 109.048C575.217 109.048 575.366 109.058 575.519 109.08C575.673 109.097 575.816 109.124 575.948 109.163V111.879C575.798 111.828 575.602 111.788 575.36 111.758C575.121 111.728 574.908 111.713 574.72 111.713C574.35 111.713 574.015 111.796 573.717 111.962C573.423 112.124 573.191 112.352 573.02 112.646C572.854 112.936 572.771 113.277 572.771 113.669V119H569.645ZM579.431 122.682C579.056 122.682 578.703 122.652 578.37 122.592C578.038 122.537 577.752 122.462 577.514 122.369L578.204 120.099C578.511 120.202 578.788 120.261 579.035 120.278C579.286 120.295 579.502 120.255 579.681 120.157C579.864 120.063 580.004 119.895 580.102 119.652L580.224 119.358L576.734 109.182H580.007L581.816 116.188H581.918L583.752 109.182H587.044L583.343 119.94C583.164 120.477 582.911 120.95 582.583 121.359C582.259 121.772 581.839 122.096 581.323 122.33C580.812 122.565 580.181 122.682 579.431 122.682ZM593.283 105.295L589.064 120.969H586.399L590.617 105.295H593.283ZM594.448 119V105.909H603.576V108.479H597.612V111.163H603.109V113.739H597.612V116.43H603.576V119H594.448ZM608.216 109.182L609.833 112.416L611.508 109.182H614.659L611.917 114.091L614.762 119H611.636L609.833 115.74L608.076 119H604.905L607.756 114.091L605.046 109.182H608.216ZM616.086 119V109.182H619.212V119H616.086ZM617.653 108.038C617.214 108.038 616.836 107.893 616.521 107.603C616.206 107.309 616.048 106.955 616.048 106.542C616.048 106.133 616.206 105.783 616.521 105.494C616.836 105.2 617.214 105.053 617.653 105.053C618.096 105.053 618.473 105.2 618.784 105.494C619.099 105.783 619.257 106.133 619.257 106.542C619.257 106.955 619.099 107.309 618.784 107.603C618.473 107.893 618.096 108.038 617.653 108.038ZM626.744 109.182V111.483H620.55V109.182H626.744ZM621.847 106.83H624.973V115.913C624.973 116.104 625.003 116.26 625.062 116.379C625.126 116.494 625.218 116.577 625.337 116.629C625.457 116.675 625.599 116.699 625.766 116.699C625.885 116.699 626.011 116.688 626.143 116.667C626.279 116.641 626.381 116.62 626.45 116.603L626.923 118.859C626.773 118.902 626.563 118.955 626.29 119.019C626.021 119.083 625.7 119.124 625.325 119.141C624.592 119.175 623.963 119.089 623.439 118.885C622.919 118.676 622.521 118.352 622.244 117.913C621.971 117.474 621.839 116.923 621.847 116.258V106.83Z" fill="#4F4F4F"/>
<path d="M539.991 86.9091H543.909L547.233 95.0142H547.386L550.71 86.9091H554.629V100H551.548V91.9588H551.439L548.294 99.9169H546.325L543.18 91.9141H543.072V100H539.991V86.9091ZM559.37 100.166C558.743 100.166 558.187 100.062 557.702 99.853C557.22 99.6399 556.839 99.3203 556.557 98.8942C556.28 98.4638 556.142 97.9247 556.142 97.277C556.142 96.7315 556.238 96.2713 556.43 95.8963C556.621 95.5213 556.885 95.2166 557.222 94.9822C557.559 94.7479 557.947 94.571 558.385 94.4517C558.824 94.3281 559.293 94.245 559.792 94.2024C560.35 94.1513 560.8 94.098 561.14 94.0426C561.481 93.983 561.729 93.8999 561.882 93.7933C562.04 93.6825 562.118 93.527 562.118 93.3267V93.2947C562.118 92.9666 562.006 92.7131 561.78 92.5341C561.554 92.3551 561.249 92.2656 560.866 92.2656C560.452 92.2656 560.12 92.3551 559.868 92.5341C559.617 92.7131 559.457 92.9602 559.389 93.2756L556.506 93.1733C556.591 92.5767 556.811 92.044 557.165 91.5753C557.523 91.1023 558.013 90.7315 558.635 90.4631C559.261 90.1903 560.013 90.054 560.891 90.054C561.518 90.054 562.095 90.1286 562.623 90.2777C563.152 90.4226 563.612 90.6357 564.004 90.9169C564.396 91.1939 564.699 91.5348 564.912 91.9396C565.129 92.3445 565.238 92.8068 565.238 93.3267V100H562.297V98.6321H562.221C562.046 98.9645 561.822 99.2457 561.55 99.4759C561.281 99.706 560.964 99.8786 560.597 99.9936C560.235 100.109 559.826 100.166 559.37 100.166ZM560.335 98.1207C560.672 98.1207 560.974 98.0526 561.243 97.9162C561.515 97.7798 561.733 97.5923 561.895 97.3537C562.057 97.1108 562.138 96.8295 562.138 96.5099V95.5767C562.048 95.6236 561.939 95.6662 561.812 95.7045C561.688 95.7429 561.552 95.7791 561.403 95.8132C561.253 95.8473 561.1 95.8771 560.942 95.9027C560.785 95.9283 560.633 95.9517 560.488 95.973C560.194 96.0199 559.943 96.0923 559.734 96.1903C559.53 96.2884 559.372 96.4162 559.261 96.5739C559.155 96.7273 559.101 96.9105 559.101 97.1236C559.101 97.4474 559.216 97.6946 559.447 97.8651C559.681 98.0355 559.977 98.1207 560.335 98.1207ZM567.149 100V90.1818H570.275V100H567.149ZM568.715 89.0376C568.276 89.0376 567.899 88.8928 567.584 88.603C567.268 88.3089 567.111 87.9553 567.111 87.5419C567.111 87.1328 567.268 86.7834 567.584 86.4936C567.899 86.1996 568.276 86.0526 568.715 86.0526C569.158 86.0526 569.535 86.1996 569.846 86.4936C570.162 86.7834 570.319 87.1328 570.319 87.5419C570.319 87.9553 570.162 88.3089 569.846 88.603C569.535 88.8928 569.158 89.0376 568.715 89.0376ZM575.39 94.4006V100H572.264V90.1818H575.237V91.9844H575.345C575.563 91.3835 575.933 90.9126 576.457 90.5717C576.982 90.2266 577.606 90.054 578.33 90.054C579.021 90.054 579.619 90.2095 580.126 90.5206C580.638 90.8274 581.034 91.2578 581.315 91.8118C581.601 92.3615 581.741 93.005 581.737 93.7422V100H578.612V94.3558C578.616 93.8104 578.477 93.3842 578.196 93.0774C577.919 92.7706 577.533 92.6172 577.039 92.6172C576.711 92.6172 576.421 92.6896 576.17 92.8345C575.923 92.9751 575.731 93.1776 575.594 93.4418C575.462 93.706 575.394 94.0256 575.39 94.4006Z" fill="#4F4F4F"/>
<path d="M551.327 7.49794L551.462 4.93191L562.511 5.51479L562.376 8.08083L558.412 7.87172L557.858 18.3784L554.743 18.2141L555.297 7.70739L551.327 7.49794ZM566.51 19.0205C565.48 18.9661 564.606 18.7088 563.888 18.2485C563.174 17.7841 562.637 17.1626 562.277 16.384C561.922 15.6014 561.77 14.708 561.823 13.7037C561.876 12.6952 562.121 11.8226 562.557 11.086C562.997 10.3454 563.596 9.78384 564.355 9.40139C565.117 9.0149 566.014 8.84882 567.044 8.90315C568.073 8.95748 568.945 9.21683 569.659 9.68121C570.377 10.1416 570.914 10.763 571.27 11.5456C571.63 12.3242 571.783 13.2178 571.73 14.2263C571.677 15.2306 571.43 16.103 570.99 16.8437C570.554 17.5803 569.955 18.1418 569.192 18.5283C568.434 18.9107 567.54 19.0748 566.51 19.0205ZM566.653 16.6661C567.028 16.6859 567.351 16.5877 567.623 16.3716C567.894 16.1555 568.109 15.8468 568.267 15.4454C568.429 15.0443 568.524 14.5757 568.552 14.0395C568.581 13.4948 568.536 13.0145 568.417 12.5985C568.302 12.1828 568.121 11.8532 567.874 11.6097C567.626 11.3662 567.315 11.2346 566.941 11.2149C566.554 11.1944 566.22 11.2921 565.94 11.5077C565.664 11.7236 565.445 12.0321 565.283 12.4332C565.125 12.8345 565.032 13.3075 565.003 13.8522C564.975 14.3884 565.018 14.8644 565.133 15.2801C565.251 15.696 565.437 16.0258 565.689 16.2695C565.944 16.5135 566.266 16.6457 566.653 16.6661ZM577.623 6.31201L581.536 6.51843L584.429 14.7874L584.582 14.7955L588.328 6.87672L592.241 7.08313L591.551 20.1559L588.475 19.9936L588.898 11.9635L588.79 11.9578L585.23 19.7392L583.264 19.6355L580.545 11.4781L580.436 11.4723L580.011 19.5471L576.934 19.3847L577.623 6.31201ZM596.277 20.5716C595.652 20.5386 595.102 20.405 594.628 20.1709C594.158 19.9328 593.794 19.5935 593.536 19.1532C593.282 18.7088 593.172 18.1632 593.206 17.5164C593.235 16.9717 593.355 16.5171 593.566 16.1527C593.777 15.7884 594.057 15.498 594.406 15.2817C594.754 15.0654 595.151 14.9092 595.595 14.8132C596.04 14.7129 596.513 14.6546 597.013 14.6383C597.573 14.6167 598.025 14.5872 598.368 14.5498C598.712 14.5082 598.963 14.4382 599.122 14.3399C599.285 14.2376 599.372 14.0864 599.382 13.8864L599.384 13.8545C599.401 13.5268 599.302 13.2677 599.086 13.077C598.87 12.8864 598.57 12.781 598.187 12.7608C597.774 12.739 597.438 12.8109 597.177 12.9764C596.917 13.1418 596.744 13.3802 596.659 13.6916L593.786 13.4376C593.903 12.8463 594.15 12.3259 594.528 11.8764C594.91 11.423 595.419 11.0785 596.054 10.8432C596.694 10.6039 597.453 10.5073 598.329 10.5536C598.955 10.5866 599.527 10.6915 600.047 10.8682C600.567 11.0408 601.016 11.2778 601.392 11.5793C601.769 11.8765 602.053 12.2329 602.245 12.6484C602.441 13.0641 602.525 13.5316 602.497 14.0507L602.146 20.7148L599.209 20.5599L599.282 19.1939L599.205 19.1898C599.013 19.5125 598.775 19.7816 598.49 19.997C598.21 20.2127 597.884 20.3683 597.512 20.4639C597.144 20.5597 596.733 20.5956 596.277 20.5716ZM597.349 18.5798C597.685 18.5976 597.991 18.5454 598.266 18.4234C598.546 18.3016 598.772 18.1258 598.947 17.896C599.121 17.662 599.217 17.3854 599.234 17.0662L599.283 16.1343C599.191 16.1764 599.08 16.2132 598.951 16.2448C598.825 16.2766 598.687 16.3056 598.536 16.3317C598.386 16.3579 598.231 16.3796 598.072 16.3969C597.913 16.4141 597.761 16.4295 597.615 16.4432C597.319 16.4745 597.064 16.5336 596.851 16.6205C596.641 16.7076 596.477 16.8269 596.358 16.9785C596.244 17.1261 596.181 17.3063 596.169 17.5191C596.152 17.8425 596.254 18.0954 596.475 18.2777C596.7 18.4603 596.991 18.561 597.349 18.5798ZM604.054 20.8154L604.572 11.0109L607.693 11.1756L607.176 20.9801L604.054 20.8154ZM606.196 9.95081C605.757 9.92769 605.388 9.76313 605.089 9.45715C604.789 9.14691 604.651 8.7854 604.672 8.37263C604.694 7.9641 604.87 7.62346 605.2 7.35071C605.53 7.07369 605.915 6.94675 606.353 6.96987C606.796 6.99321 607.164 7.1599 607.46 7.46991C607.759 7.77589 607.898 8.13314 607.877 8.54167C607.855 8.95445 607.679 9.29934 607.348 9.57636C607.023 9.84934 606.638 9.97416 606.196 9.95081ZM612.579 15.6579L612.284 21.2496L609.162 21.0849L609.68 11.2804L612.648 11.4369L612.553 13.237L612.661 13.2427C612.91 12.6542 613.305 12.2035 613.846 11.8906C614.388 11.5736 615.021 11.4341 615.744 11.4723C616.433 11.5086 617.023 11.6955 617.513 12.0329C618.008 12.3662 618.381 12.8169 618.632 13.3849C618.889 13.9489 618.995 14.5989 618.952 15.3348L618.622 21.584L615.501 21.4193L615.798 15.783C615.831 15.2385 615.715 14.8056 615.451 14.4844C615.19 14.1634 614.813 13.9899 614.32 13.9639C613.992 13.9466 613.699 14.0037 613.44 14.1351C613.186 14.2625 612.984 14.4546 612.834 14.7112C612.688 14.9681 612.603 15.2837 612.579 15.6579ZM624.417 21.8896L625.106 8.8169L630.506 9.10177C631.485 9.15341 632.321 9.37457 633.013 9.76526C633.709 10.1519 634.234 10.6831 634.586 11.3589C634.939 12.0304 635.092 12.813 635.045 13.7066C634.997 14.613 634.759 15.3728 634.329 15.986C633.9 16.595 633.313 17.0462 632.568 17.3397C631.823 17.629 630.953 17.7474 629.957 17.6949L626.542 17.5147L626.673 15.0253L629.501 15.1744C629.978 15.1996 630.379 15.1589 630.705 15.0523C631.035 14.9417 631.29 14.7631 631.469 14.5165C631.649 14.2657 631.749 13.9382 631.77 13.5339C631.792 13.1296 631.726 12.7912 631.574 12.5186C631.423 12.2418 631.188 12.0288 630.872 11.8799C630.556 11.7266 630.161 11.6375 629.689 11.6126L628.132 11.5305L627.576 22.0563L624.417 21.8896ZM632.092 16.3032L635.032 22.4496L631.585 22.2678L628.709 16.1248L632.092 16.3032ZM639.699 22.8366C638.975 22.7985 638.328 22.5765 637.756 22.1709C637.184 21.7652 636.741 21.1785 636.428 20.4109C636.114 19.6433 635.986 18.7042 636.045 17.5935C636.106 16.4403 636.339 15.501 636.744 14.7756C637.149 14.0502 637.657 13.5244 638.267 13.1981C638.882 12.8721 639.532 12.7272 640.217 12.7633C640.732 12.7905 641.168 12.9031 641.524 13.1011C641.881 13.2949 642.171 13.5364 642.395 13.8255C642.619 14.1147 642.784 14.4115 642.892 14.7159L642.956 14.7193L643.217 9.7723L646.338 9.93696L645.649 23.0097L642.559 22.8467L642.643 21.2573L642.547 21.2523C642.399 21.5474 642.197 21.8205 641.941 22.0716C641.684 22.3226 641.369 22.5193 640.994 22.6617C640.624 22.8044 640.192 22.8627 639.699 22.8366ZM640.912 20.4619C641.291 20.4819 641.62 20.3925 641.899 20.1939C642.179 19.991 642.401 19.6976 642.566 19.3138C642.732 18.9299 642.828 18.4741 642.856 17.9465C642.884 17.4103 642.836 16.9447 642.712 16.5499C642.592 16.1552 642.401 15.8464 642.14 15.6236C641.883 15.4009 641.565 15.2796 641.186 15.2596C640.799 15.2392 640.466 15.3283 640.187 15.5269C639.907 15.7255 639.687 16.0148 639.526 16.3946C639.37 16.7747 639.277 17.2285 639.25 17.7562C639.222 18.2839 639.268 18.7472 639.388 19.1461C639.507 19.545 639.693 19.8599 639.946 20.0909C640.203 20.3178 640.525 20.4414 640.912 20.4619Z" fill="#4F4F4F"/>
<path d="M0.990767 439V425.909H6.44957C7.42969 425.909 8.25 426.048 8.91051 426.325C9.57528 426.602 10.0739 426.989 10.4062 427.488C10.7429 427.987 10.9112 428.564 10.9112 429.22C10.9112 429.719 10.8068 430.164 10.598 430.556C10.3892 430.944 10.1016 431.266 9.73509 431.521C9.36861 431.777 8.9446 431.956 8.46307 432.058V432.186C8.99148 432.212 9.4794 432.354 9.92685 432.614C10.3786 432.874 10.7408 433.237 11.0135 433.701C11.2862 434.161 11.4226 434.707 11.4226 435.337C11.4226 436.04 11.2436 436.669 10.8857 437.223C10.5277 437.773 10.0099 438.207 9.33239 438.527C8.65483 438.842 7.83239 439 6.86506 439H0.990767ZM4.15483 436.45H6.1108C6.79688 436.45 7.30185 436.32 7.62571 436.06C7.95384 435.8 8.1179 435.438 8.1179 434.973C8.1179 434.636 8.03906 434.347 7.88139 434.104C7.72372 433.857 7.5 433.667 7.21023 433.535C6.92045 433.398 6.57315 433.33 6.16832 433.33H4.15483V436.45ZM4.15483 431.291H5.90625C6.25142 431.291 6.55824 431.234 6.8267 431.119C7.09517 431.004 7.30398 430.837 7.45312 430.62C7.60653 430.403 7.68324 430.141 7.68324 429.834C7.68324 429.395 7.5277 429.05 7.21662 428.798C6.90554 428.547 6.4858 428.421 5.95739 428.421H4.15483V431.291ZM15.7116 439.166C15.0852 439.166 14.5291 439.062 14.0433 438.853C13.5618 438.64 13.1804 438.32 12.8991 437.894C12.6222 437.464 12.4837 436.925 12.4837 436.277C12.4837 435.732 12.5795 435.271 12.7713 434.896C12.9631 434.521 13.2273 434.217 13.5639 433.982C13.9006 433.748 14.2884 433.571 14.7273 433.452C15.1662 433.328 15.6349 433.245 16.1335 433.202C16.6918 433.151 17.1413 433.098 17.4822 433.043C17.8232 432.983 18.0703 432.9 18.2237 432.793C18.3814 432.683 18.4602 432.527 18.4602 432.327V432.295C18.4602 431.967 18.3473 431.713 18.1214 431.534C17.8956 431.355 17.5909 431.266 17.2074 431.266C16.794 431.266 16.4616 431.355 16.2102 431.534C15.9588 431.713 15.799 431.96 15.7308 432.276L12.848 432.173C12.9332 431.577 13.1527 431.044 13.5064 430.575C13.8643 430.102 14.3544 429.732 14.9766 429.463C15.603 429.19 16.3551 429.054 17.233 429.054C17.8594 429.054 18.4368 429.129 18.9652 429.278C19.4936 429.423 19.9538 429.636 20.3459 429.917C20.7379 430.194 21.0405 430.535 21.2536 430.94C21.4709 431.344 21.5795 431.807 21.5795 432.327V439H18.6392V437.632H18.5625C18.3878 437.964 18.1641 438.246 17.8913 438.476C17.6229 438.706 17.3054 438.879 16.9389 438.994C16.5767 439.109 16.1676 439.166 15.7116 439.166ZM16.6768 437.121C17.0135 437.121 17.3161 437.053 17.5845 436.916C17.8572 436.78 18.0746 436.592 18.2365 436.354C18.3984 436.111 18.4794 435.83 18.4794 435.51V434.577C18.3899 434.624 18.2813 434.666 18.1534 434.705C18.0298 434.743 17.8935 434.779 17.7443 434.813C17.5952 434.847 17.4418 434.877 17.2841 434.903C17.1264 434.928 16.9751 434.952 16.8303 434.973C16.5362 435.02 16.2848 435.092 16.076 435.19C15.8714 435.288 15.7138 435.416 15.603 435.574C15.4964 435.727 15.4432 435.911 15.4432 436.124C15.4432 436.447 15.5582 436.695 15.7884 436.865C16.0227 437.036 16.3189 437.121 16.6768 437.121ZM28.0739 439.185C27.0384 439.185 26.1499 438.972 25.4084 438.546C24.6712 438.12 24.1044 437.528 23.7081 436.769C23.3118 436.006 23.1136 435.124 23.1136 434.123C23.1136 433.117 23.3118 432.235 23.7081 431.477C24.1087 430.714 24.6776 430.119 25.4148 429.693C26.1563 429.267 27.0405 429.054 28.0675 429.054C28.9751 429.054 29.7656 429.218 30.4389 429.546C31.1165 429.874 31.6449 430.339 32.0241 430.94C32.4077 431.536 32.6101 432.237 32.6314 433.043H29.7102C29.6506 432.54 29.4801 432.146 29.1989 431.86C28.9219 431.575 28.5597 431.432 28.1122 431.432C27.75 431.432 27.4325 431.534 27.1598 431.739C26.8871 431.939 26.674 432.237 26.5206 432.634C26.3714 433.026 26.2969 433.511 26.2969 434.091C26.2969 434.67 26.3714 435.161 26.5206 435.561C26.674 435.957 26.8871 436.258 27.1598 436.462C27.4325 436.663 27.75 436.763 28.1122 436.763C28.402 436.763 28.6577 436.701 28.8793 436.577C29.1051 436.454 29.2905 436.273 29.4354 436.034C29.5803 435.791 29.6719 435.497 29.7102 435.152H32.6314C32.6016 435.962 32.3991 436.669 32.0241 437.274C31.6534 437.879 31.1314 438.35 30.4581 438.687C29.7891 439.019 28.9943 439.185 28.0739 439.185ZM37.0499 436.424L37.0627 432.697H37.4973L40.2587 429.182H43.7999L39.6962 434.219H38.8716L37.0499 436.424ZM34.231 439V425.909H37.3567V439H34.231ZM40.329 439L37.7594 434.922L39.8176 432.704L43.9405 439H40.329Z" fill="#4F4F4F"/>
<path d="M0.990767 456V442.909H10.1186V445.479H4.15483V448.163H9.65199V450.739H4.15483V453.43H10.1186V456H0.990767ZM15.2259 450.401V456H12.1001V446.182H15.0724V447.984H15.1811C15.3984 447.384 15.7692 446.913 16.2933 446.572C16.8175 446.227 17.4418 446.054 18.1662 446.054C18.8565 446.054 19.4553 446.21 19.9624 446.521C20.4737 446.827 20.87 447.258 21.1513 447.812C21.4368 448.362 21.5774 449.005 21.5732 449.742V456H18.4474V450.356C18.4517 449.81 18.3132 449.384 18.032 449.077C17.755 448.771 17.3693 448.617 16.875 448.617C16.5469 448.617 16.2571 448.69 16.0057 448.835C15.7585 448.975 15.5668 449.178 15.4304 449.442C15.2983 449.706 15.2301 450.026 15.2259 450.401ZM29.0502 446.182V448.483H22.8564V446.182H29.0502ZM24.1539 443.83H27.2797V452.913C27.2797 453.104 27.3095 453.26 27.3691 453.379C27.4331 453.494 27.5247 453.577 27.644 453.629C27.7633 453.675 27.9061 453.699 28.0723 453.699C28.1916 453.699 28.3173 453.688 28.4494 453.667C28.5858 453.641 28.688 453.62 28.7562 453.603L29.2292 455.859C29.0801 455.902 28.8691 455.955 28.5964 456.019C28.3279 456.083 28.0062 456.124 27.6312 456.141C26.8983 456.175 26.2697 456.089 25.7456 455.885C25.2257 455.676 24.8272 455.352 24.5502 454.913C24.2775 454.474 24.1454 453.923 24.1539 453.258V443.83ZM30.6451 456V446.182H33.6813V447.972H33.7836C33.9625 447.324 34.2544 446.842 34.6593 446.527C35.0641 446.207 35.535 446.048 36.0719 446.048C36.2168 446.048 36.3659 446.058 36.5194 446.08C36.6728 446.097 36.8155 446.124 36.9476 446.163V448.879C36.7985 448.828 36.6025 448.788 36.3596 448.758C36.1209 448.728 35.9078 448.713 35.7203 448.713C35.3496 448.713 35.0151 448.796 34.7168 448.962C34.4228 449.124 34.1905 449.352 34.0201 449.646C33.8539 449.936 33.7708 450.277 33.7708 450.669V456H30.6451ZM40.4313 459.682C40.0563 459.682 39.7026 459.652 39.3702 459.592C39.0378 459.537 38.7523 459.462 38.5137 459.369L39.204 457.099C39.5108 457.202 39.7878 457.261 40.035 457.278C40.2864 457.295 40.5016 457.255 40.6806 457.157C40.8638 457.063 41.0044 456.895 41.1025 456.652L41.2239 456.358L37.7338 446.182H41.0066L42.8155 453.188H42.9178L44.7523 446.182H48.0442L44.3432 456.94C44.1642 457.477 43.9107 457.95 43.5826 458.359C43.2587 458.772 42.839 459.096 42.3233 459.33C41.812 459.565 41.1813 459.682 40.4313 459.682ZM54.2828 442.295L50.0641 457.969H47.3986L51.6174 442.295H54.2828ZM55.4478 456V442.909H64.5756V445.479H58.6119V448.163H64.109V450.739H58.6119V453.43H64.5756V456H55.4478ZM69.2163 446.182L70.8335 449.416L72.5082 446.182H75.6594L72.9173 451.091L75.7617 456H72.636L70.8335 452.74L69.0756 456H65.9052L68.756 451.091L66.0458 446.182H69.2163ZM77.0865 456V446.182H80.2122V456H77.0865ZM78.6525 445.038C78.2136 445.038 77.8365 444.893 77.5211 444.603C77.2058 444.309 77.0481 443.955 77.0481 443.542C77.0481 443.133 77.2058 442.783 77.5211 442.494C77.8365 442.2 78.2136 442.053 78.6525 442.053C79.0957 442.053 79.4728 442.2 79.7839 442.494C80.0993 442.783 80.2569 443.133 80.2569 443.542C80.2569 443.955 80.0993 444.309 79.7839 444.603C79.4728 444.893 79.0957 445.038 78.6525 445.038ZM87.7436 446.182V448.483H81.5497V446.182H87.7436ZM82.8473 443.83H85.973V452.913C85.973 453.104 86.0028 453.26 86.0625 453.379C86.1264 453.494 86.218 453.577 86.3374 453.629C86.4567 453.675 86.5994 453.699 86.7656 453.699C86.8849 453.699 87.0107 453.688 87.1428 453.667C87.2791 453.641 87.3814 453.62 87.4496 453.603L87.9226 455.859C87.7734 455.902 87.5625 455.955 87.2898 456.019C87.0213 456.083 86.6996 456.124 86.3246 456.141C85.5916 456.175 84.9631 456.089 84.4389 455.885C83.919 455.676 83.5206 455.352 83.2436 454.913C82.9709 454.474 82.8388 453.923 82.8473 453.258V443.83Z" fill="#4F4F4F"/>
<path d="M511.5 151L491 149.942M491 149.942L356.5 143L352.5 209L350 280.5C343.575 302.076 346.569 345.98 341.5 363C338.097 374.427 327 379 327 395M491 149.942L499.5 129.5" stroke="#618DE5" stroke-width="5" stroke-dasharray="10 10"/>
<path d="M321.5 350V360.5L187.5 354H176.5V344C164.88 315.957 164.92 300.582 179.5 274V264H187.5V268.5L321.5 272.5V276V286C337.988 314.821 332.241 327.5 321.5 350Z" fill="#434343" stroke="black" stroke-width="6"/>
<path d="M533.5 254L530 363.5V371.5L472 369L476 239H441.5V246H422H400.5V239H364.5V236.5L347 235V222H343L347 156.5L482.5 163.5V189.5V198.5L500.5 200.5V219H517V254H533.5Z" fill="#434343" stroke="black" stroke-width="6"/>
<path d="M364.5 355L368.5 241" stroke="#212121" stroke-width="7"/>
<path d="M332 316L369 317" stroke="#212121" stroke-width="7"/>
<path d="M277 411L314 412" stroke="#212121" stroke-width="7"/>
<path d="M334.5 482.5H301L304 396.5L348.5 399H374.5V423L411.5 425.5V388.5H433V396.5L480 399V392.5L536 396.5V449H427.5V464H403.5L391.5 476H374.5V484.5H358.5L358 489.5H334.5V482.5Z" fill="#434343" stroke="black" stroke-width="6"/>
<path d="M349.5 370V397H377.5V420.5L408 423.5V386.5H436V393.5L476.5 397V389.5H482V359L487.5 243.5L471 241V254L467.5 359L353.5 355V370H349.5Z" fill="#2E2E2E" stroke="black" stroke-width="3.5"/>
<path d="M338.335 452H328.926V426.545H338.323C340.916 426.545 343.149 427.055 345.022 428.074C346.903 429.085 348.353 430.543 349.372 432.449C350.391 434.347 350.901 436.617 350.901 439.26C350.901 441.912 350.391 444.19 349.372 446.096C348.361 448.002 346.915 449.464 345.034 450.484C343.154 451.495 340.92 452 338.335 452ZM335.079 446.755H338.099C339.524 446.755 340.73 446.515 341.716 446.034C342.71 445.545 343.46 444.754 343.966 443.66C344.479 442.558 344.736 441.092 344.736 439.26C344.736 437.429 344.479 435.971 343.966 434.885C343.452 433.792 342.694 433.004 341.691 432.524C340.697 432.035 339.47 431.79 338.012 431.79H335.079V446.755Z" fill="#737373"/>
<path d="M479.032 420.768H472.817C472.735 420.13 472.565 419.554 472.308 419.04C472.051 418.526 471.711 418.087 471.289 417.723C470.866 417.358 470.365 417.08 469.785 416.89C469.213 416.691 468.579 416.592 467.883 416.592C466.649 416.592 465.584 416.894 464.689 417.499C463.802 418.104 463.119 418.978 462.638 420.121C462.166 421.265 461.93 422.649 461.93 424.273C461.93 425.963 462.17 427.38 462.651 428.523C463.139 429.659 463.823 430.516 464.701 431.096C465.588 431.668 466.636 431.954 467.846 431.954C468.525 431.954 469.143 431.867 469.698 431.693C470.261 431.519 470.754 431.266 471.177 430.935C471.608 430.595 471.96 430.185 472.233 429.704C472.515 429.215 472.71 428.664 472.817 428.051L479.032 428.088C478.924 429.215 478.597 430.326 478.05 431.419C477.511 432.513 476.77 433.512 475.825 434.415C474.881 435.31 473.729 436.022 472.37 436.553C471.019 437.083 469.47 437.348 467.722 437.348C465.418 437.348 463.355 436.843 461.532 435.832C459.717 434.812 458.284 433.329 457.232 431.382C456.179 429.435 455.653 427.065 455.653 424.273C455.653 421.472 456.188 419.098 457.256 417.151C458.325 415.204 459.771 413.725 461.594 412.714C463.417 411.703 465.46 411.197 467.722 411.197C469.263 411.197 470.688 411.413 471.997 411.844C473.306 412.266 474.458 412.888 475.452 413.708C476.447 414.52 477.255 415.519 477.876 416.703C478.498 417.888 478.883 419.243 479.032 420.768Z" fill="#737373"/>
<path d="M497.926 324V298.545H508.541C510.447 298.545 512.042 298.815 513.326 299.353C514.619 299.892 515.588 300.646 516.234 301.615C516.889 302.585 517.216 303.708 517.216 304.984C517.216 305.953 517.013 306.819 516.607 307.581C516.201 308.335 515.642 308.961 514.929 309.458C514.217 309.955 513.392 310.303 512.456 310.502V310.751C513.483 310.8 514.432 311.078 515.302 311.583C516.181 312.089 516.885 312.793 517.415 313.696C517.945 314.591 518.211 315.652 518.211 316.878C518.211 318.245 517.863 319.468 517.167 320.545C516.471 321.614 515.464 322.459 514.146 323.08C512.829 323.693 511.23 324 509.349 324H497.926ZM504.079 319.041H507.882C509.216 319.041 510.198 318.788 510.828 318.283C511.466 317.777 511.785 317.073 511.785 316.17C511.785 315.515 511.632 314.952 511.325 314.479C511.018 313.999 510.583 313.63 510.02 313.373C509.456 313.108 508.781 312.975 507.994 312.975H504.079V319.041ZM504.079 309.011H507.484C508.156 309.011 508.752 308.899 509.274 308.675C509.796 308.451 510.202 308.128 510.492 307.706C510.79 307.283 510.94 306.773 510.94 306.177C510.94 305.323 510.637 304.652 510.032 304.163C509.427 303.674 508.611 303.43 507.584 303.43H504.079V309.011Z" fill="#737373"/>
<path d="M407.433 214H400.82L409.409 188.545H417.599L426.188 214H419.576L413.597 194.959H413.398L407.433 214ZM406.55 203.982H420.371V208.656H406.55V203.982Z" fill="#737373"/>
<path d="M239.926 325V299.545H257.675V304.542H246.079V309.762H256.768V314.771H246.079V320.004H257.675V325H239.926Z" fill="#737373"/>
<path d="M372.5 344L376 252L465 254.5L461 352.5L372.5 349.5V344Z" fill="#3A5C1F"/>
<path d="M300.5 175.5L208 171.5V172.5L206.5 212L268 213L273 208H302L303 197H326V216.5L335 218.5L339.5 164L313 159.5L300.5 175.5Z" fill="#278096"/>
<path d="M528.5 141L536.5 143.5L563.5 463.5L547.5 483.5H465L383 518.5L107.5 524V494M109.5 468L125 360.5L129 316L141 253L171.5 201V143.5L203.5 123L401.5 129L486.5 133.5" stroke="black" stroke-width="8"/>
<ellipse cx="313" cy="211" rx="4" ry="3" fill="#3A5C1F"/>
<ellipse cx="302" cy="222" rx="4" ry="3" fill="#3A5C1F"/>
<ellipse cx="323" cy="235" rx="4" ry="3" fill="#3A5C1F"/>
<ellipse cx="324" cy="257" rx="4" ry="3" fill="#3A5C1F"/>
<ellipse cx="335.441" cy="260.992" rx="2.5" ry="2" transform="rotate(-90.969 335.441 260.992)" fill="#3A5C1F"/>
<ellipse cx="295" cy="219" rx="4" ry="3" fill="#3A5C1F"/>
<ellipse cx="317" cy="254" rx="4" ry="3" fill="#3A5C1F"/>
<ellipse cx="333.526" cy="266.025" rx="2.5" ry="2" transform="rotate(-90.969 333.526 266.025)" fill="#3A5C1F"/>
<ellipse cx="290" cy="221.5" rx="2" ry="1.5" fill="#3A5C1F"/>
<ellipse cx="278" cy="228.5" rx="3" ry="1.5" fill="#3A5C1F"/>
<ellipse cx="312" cy="256.5" rx="2" ry="1.5" fill="#3A5C1F"/>
<ellipse cx="334.576" cy="269.008" rx="1.5" ry="1" transform="rotate(-90.969 334.576 269.008)" fill="#3A5C1F"/>
<ellipse cx="300" cy="235" rx="4" ry="3" fill="#3A5C1F"/>
<ellipse cx="303.5" cy="253" rx="2.5" ry="2" fill="#3A5C1F"/>
<ellipse cx="260.5" cy="230" rx="2.5" ry="2" fill="#3A5C1F"/>
<ellipse cx="236" cy="226" rx="4" ry="3" fill="#3A5C1F"/>
<ellipse cx="226" cy="227" rx="4" ry="3" fill="#3A5C1F"/>
<ellipse cx="227.5" cy="230" rx="2.5" ry="2" fill="#3A5C1F"/>
<ellipse cx="227.5" cy="219.5" rx="3.5" ry="2.5" fill="#3A5C1F"/>
<ellipse cx="207.5" cy="214.5" rx="3.5" ry="2.5" fill="#3A5C1F"/>
<ellipse cx="214.5" cy="210" rx="5.5" ry="4" fill="#3A5C1F"/>
<ellipse cx="207.5" cy="206" rx="5.5" ry="4" fill="#3A5C1F"/>
<ellipse cx="207.951" cy="174.948" rx="4" ry="3" transform="rotate(44.8918 207.951 174.948)" fill="#3A5C1F"/>
<ellipse cx="240.951" cy="173.948" rx="4" ry="3" transform="rotate(44.8918 240.951 173.948)" fill="#3A5C1F"/>
<ellipse cx="230.323" cy="175.319" rx="6.72428" ry="5.04321" transform="rotate(44.8918 230.323 175.319)" fill="#3A5C1F"/>
<ellipse cx="229.105" cy="158.619" rx="4" ry="3" transform="rotate(-142.281 229.105 158.619)" fill="#3A5C1F"/>
<ellipse cx="233.999" cy="161.234" rx="4" ry="3" transform="rotate(37.7186 233.999 161.234)" fill="#3A5C1F"/>
<ellipse cx="214.951" cy="174.948" rx="4" ry="3" transform="rotate(10.3369 214.951 174.948)" fill="#3A5C1F"/>
<ellipse cx="247.951" cy="173.948" rx="4" ry="3" transform="rotate(10.3369 247.951 173.948)" fill="#3A5C1F"/>
<ellipse cx="335.951" cy="155.948" rx="4" ry="3" transform="rotate(10.3369 335.951 155.948)" fill="#3A5C1F"/>
<ellipse cx="2.1174" cy="2.16636" rx="2.1174" ry="2.16636" transform="matrix(0.969086 0.246722 -0.129572 0.99157 311.896 150.659)" fill="#3A5C1F"/>
<ellipse cx="222.159" cy="159.493" rx="4" ry="3" transform="rotate(-176.836 222.159 159.493)" fill="#3A5C1F"/>
<ellipse cx="2.26838" cy="1.91655" rx="2.26838" ry="1.91655" transform="matrix(-0.998064 -0.0621918 0.0489697 -0.9988 198.528 165.204)" fill="#3A5C1F"/>
<ellipse cx="240.945" cy="160.36" rx="4" ry="3" transform="rotate(3.16368 240.945 160.36)" fill="#3A5C1F"/>
<ellipse cx="213.549" cy="172.033" rx="3.30606" ry="2.47954" transform="rotate(10.3369 213.549 172.033)" fill="#426F1F"/>
<ellipse cx="246.549" cy="171.033" rx="3.30606" ry="2.47954" transform="rotate(10.3369 246.549 171.033)" fill="#426F1F"/>
<ellipse cx="334.549" cy="153.033" rx="3.30606" ry="2.47954" transform="rotate(10.3369 334.549 153.033)" fill="#426F1F"/>
<ellipse cx="1.75006" cy="1.79053" rx="1.75006" ry="1.79053" transform="matrix(0.969086 0.246722 -0.129572 0.99157 311.473 149)" fill="#426F1F"/>
<ellipse cx="223.914" cy="162.21" rx="3.30606" ry="2.47954" transform="rotate(-176.836 223.914 162.21)" fill="#426F1F"/>
<ellipse cx="1.87485" cy="1.58406" rx="1.87485" ry="1.58406" transform="matrix(-0.998064 -0.0621918 0.0489697 -0.9988 199.146 166.585)" fill="#426F1F"/>
<ellipse cx="239.19" cy="157.642" rx="3.30606" ry="2.47954" transform="rotate(3.16368 239.19 157.642)" fill="#426F1F"/>
<ellipse cx="216.899" cy="172.378" rx="2.59249" ry="1.94436" transform="rotate(10.3369 216.899 172.378)" fill="#426F1F"/>
<ellipse cx="206.899" cy="178.378" rx="2.59249" ry="1.94436" transform="rotate(10.3369 206.899 178.378)" fill="#426F1F"/>
<ellipse cx="229.72" cy="155.084" rx="2.59249" ry="1.94436" transform="rotate(-176.836 229.72 155.084)" fill="#426F1F"/>
<ellipse cx="2.37884" cy="2.00988" rx="2.37884" ry="2.00988" transform="matrix(-0.522542 -0.852614 0.845619 -0.533787 201.131 162.723)" fill="#426F1F"/>
<ellipse cx="233.384" cy="164.768" rx="2.59249" ry="1.94436" transform="rotate(3.16368 233.384 164.768)" fill="#426F1F"/>
<ellipse cx="207.899" cy="180.378" rx="2.59249" ry="1.94436" transform="rotate(10.3369 207.899 180.378)" fill="#426F1F"/>
<ellipse cx="227" cy="215.5" rx="2" ry="1.5" fill="#3A5C1F"/>
<ellipse cx="240.5" cy="223" rx="2.5" ry="2" fill="#3A5C1F"/>
<ellipse cx="244.5" cy="217" rx="3.5" ry="3" fill="#3A5C1F"/>
<ellipse cx="308.5" cy="208" rx="5.5" ry="4" fill="#497328"/>
<ellipse cx="315.5" cy="207.5" rx="3.5" ry="2.5" fill="#49821B"/>
<ellipse cx="301.5" cy="233" rx="2.5" ry="2" fill="#49821B"/>
<ellipse cx="305.5" cy="254" rx="2.5" ry="2" fill="#49821B"/>
<ellipse cx="262.5" cy="231" rx="2.5" ry="2" fill="#49821B"/>
<ellipse cx="237.5" cy="224" rx="2.5" ry="2" fill="#49821B"/>
<ellipse cx="246.5" cy="218" rx="2.5" ry="2" fill="#49821B"/>
<ellipse cx="228.5" cy="226" rx="2.5" ry="2" fill="#49821B"/>
<ellipse cx="226.5" cy="218" rx="2.5" ry="2" fill="#49821B"/>
<ellipse cx="211.5" cy="214" rx="2.5" ry="2" fill="#49821B"/>
<ellipse cx="212.5" cy="207" rx="2.5" ry="2" fill="#49821B"/>
<ellipse cx="209.012" cy="169.7" rx="2.5" ry="2" transform="rotate(-18.8252 209.012 169.7)" fill="#49821B"/>
<ellipse cx="228.708" cy="163.959" rx="2.5" ry="2" transform="rotate(154.002 228.708 163.959)" fill="#49821B"/>
<ellipse cx="1.45357" cy="1.25166" rx="1.45357" ry="1.25166" transform="matrix(-0.876285 0.481793 -0.397043 -0.9178 201.841 166.452)" fill="#49821B"/>
<ellipse cx="234.396" cy="155.894" rx="2.5" ry="2" transform="rotate(-25.9985 234.396 155.894)" fill="#49821B"/>
<ellipse cx="208.902" cy="172.534" rx="2.5" ry="2" transform="rotate(13.6599 208.902 172.534)" fill="#49821B"/>
<ellipse cx="241.902" cy="171.534" rx="2.5" ry="2" transform="rotate(13.6599 241.902 171.534)" fill="#49821B"/>
<ellipse cx="329.902" cy="153.534" rx="2.5" ry="2" transform="rotate(13.6599 329.902 153.534)" fill="#49821B"/>
<ellipse cx="1.33765" cy="1.4358" rx="1.33765" ry="1.4358" transform="matrix(0.946995 0.321249 -0.171534 0.985178 309.493 149.728)" fill="#49821B"/>
<ellipse cx="227.111" cy="172.374" rx="3.59962" ry="2.59694" transform="rotate(13.6599 227.111 172.374)" fill="#49821B"/>
<ellipse cx="228.463" cy="161.133" rx="2.5" ry="2" transform="rotate(-173.513 228.463 161.133)" fill="#49821B"/>
<ellipse cx="1.4196" cy="1.27637" rx="1.4196" ry="1.27637" transform="matrix(-0.991885 -0.12714 0.100346 -0.994953 201.211 165.647)" fill="#49821B"/>
<ellipse cx="234.641" cy="158.72" rx="2.5" ry="2" transform="rotate(6.48666 234.641 158.72)" fill="#49821B"/>
<ellipse cx="223.559" cy="156.306" rx="1.4378" ry="1.15024" transform="rotate(-173.513 223.559 156.306)" fill="#49821B"/>
<ellipse cx="0.81644" cy="0.734067" rx="0.81644" ry="0.734067" transform="matrix(-0.991885 -0.12714 0.100346 -0.994953 197.887 161.947)" fill="#49821B"/>
<ellipse cx="239.545" cy="163.547" rx="1.4378" ry="1.15024" transform="rotate(6.48666 239.545 163.547)" fill="#49821B"/>
<ellipse cx="242.559" cy="162.305" rx="1.4378" ry="1.15024" transform="rotate(6.48666 242.559 162.305)" fill="#49821B"/>
<ellipse cx="243.559" cy="161.305" rx="1.4378" ry="1.15024" transform="rotate(6.48666 243.559 161.305)" fill="#49821B"/>
<ellipse cx="219.902" cy="173.534" rx="2.5" ry="2" transform="rotate(13.6599 219.902 173.534)" fill="#49821B"/>
<ellipse cx="198.5" cy="192" rx="2.5" ry="2" fill="#49821B"/>
<ellipse cx="206.5" cy="209" rx="2.5" ry="2" fill="#49821B"/>
<ellipse cx="195.5" cy="195" rx="3.5" ry="3" fill="#49821B"/>
<ellipse cx="207.5" cy="207" rx="1.5" ry="1" fill="#49821B"/>
<ellipse cx="301.5" cy="226" rx="2.5" ry="2" fill="#49821B"/>
<ellipse cx="322.5" cy="239" rx="2.5" ry="2" fill="#49821B"/>
<ellipse cx="323.5" cy="261" rx="2.5" ry="2" fill="#49821B"/>
<ellipse cx="297" cy="223" rx="5" ry="4" fill="#49821B"/>
<ellipse cx="318" cy="236" rx="5" ry="4" fill="#49821B"/>
<ellipse cx="392.8" cy="267.4" rx="2.8" ry="2" fill="#578036"/>
<ellipse cx="388.4" cy="265" rx="2.4" ry="2" fill="#578036"/>
<ellipse cx="392.4" cy="269.8" rx="1.6" ry="1.2" fill="#334822"/>
<ellipse cx="389.6" cy="267.8" rx="3.6" ry="2.4" fill="#334822"/>
<ellipse cx="2.5" cy="2" rx="2.5" ry="2" transform="matrix(1 0 0 -1 418 270)" fill="#578036"/>
<ellipse cx="2.5" cy="2" rx="2.5" ry="2" transform="matrix(1 0 0 -1 414 272)" fill="#578036"/>
<ellipse cx="1.5" cy="1" rx="1.5" ry="1" transform="matrix(1 0 0 -1 419 266)" fill="#334822"/>
<ellipse cx="3.5" cy="2.5" rx="3.5" ry="2.5" transform="matrix(1 0 0 -1 414 270)" fill="#334822"/>
<ellipse cx="389.727" cy="293.133" rx="2.36171" ry="1.96809" transform="rotate(70.1836 389.727 293.133)" fill="#578036"/>
<ellipse cx="390.348" cy="287.889" rx="2.36171" ry="1.96809" transform="rotate(70.1836 390.348 287.889)" fill="#578036"/>
<ellipse cx="387.238" cy="293.194" rx="1.57447" ry="1.18085" transform="rotate(70.1836 387.238 293.194)" fill="#334822"/>
<ellipse cx="388.29" cy="290.305" rx="3.14894" ry="2.36171" transform="rotate(70.1836 388.29 290.305)" fill="#334822"/>
<ellipse cx="389.798" cy="314.035" rx="3.29527" ry="2.74606" transform="rotate(121.173 389.798 314.035)" fill="#578036"/>
<ellipse cx="393.876" cy="311.313" rx="2.54975" ry="2.12479" transform="rotate(121.173 393.876 311.313)" fill="#578036"/>
<ellipse cx="387.547" cy="311.39" rx="2.19684" ry="1.64763" transform="rotate(121.173 387.547 311.39)" fill="#334822"/>
<ellipse cx="390.941" cy="312.229" rx="3.39966" ry="2.54975" transform="rotate(121.173 390.941 312.229)" fill="#334822"/>
<ellipse cx="3.53087" cy="2.73296" rx="3.53087" ry="2.73296" transform="matrix(-0.951841 0.306592 -0.363037 -0.931775 419.706 317.13)" fill="#578036"/>
<ellipse cx="2.73205" cy="2.11465" rx="2.73205" ry="2.11465" transform="matrix(-0.951841 0.306592 -0.363037 -0.931775 424 317.269)" fill="#578036"/>
<ellipse cx="2.35391" cy="1.63977" rx="2.35391" ry="1.63977" transform="matrix(-0.951841 0.306592 -0.363037 -0.931775 418.118 313.056)" fill="#334822"/>
<ellipse cx="3.64273" cy="2.53759" rx="3.64273" ry="2.53759" transform="matrix(-0.951841 0.306592 -0.363037 -0.931775 422.211 315.184)" fill="#334822"/>
<ellipse cx="3.53087" cy="2.54034" rx="3.53087" ry="2.54034" transform="matrix(0.951841 -0.306592 0.363037 0.931775 445.434 312.524)" fill="#578036"/>
<ellipse cx="3.06165" cy="1.40881" rx="3.06165" ry="1.40881" transform="matrix(0.951841 -0.306592 0.363037 0.931775 440.885 313.543)" fill="#578036"/>
<ellipse cx="2.35391" cy="1.63977" rx="2.35391" ry="1.63977" transform="matrix(0.951841 -0.306592 0.363037 0.931775 446.882 316.239)" fill="#334822"/>
<ellipse cx="3.64273" cy="2.53759" rx="3.64273" ry="2.53759" transform="matrix(0.951841 -0.306592 0.363037 0.931775 442.789 314.111)" fill="#334822"/>
<ellipse cx="3.04285" cy="2.68132" rx="3.04285" ry="2.68132" transform="matrix(-0.934576 -0.355765 -0.313101 0.94972 419.367 335.165)" fill="#578036"/>
<ellipse cx="2.35444" cy="2.0747" rx="2.35444" ry="2.0747" transform="matrix(-0.934576 -0.355765 -0.313101 0.94972 423 335.026)" fill="#578036"/>
<ellipse cx="2.02857" cy="1.60879" rx="2.02857" ry="1.60879" transform="matrix(-0.934576 -0.355765 -0.313101 0.94972 418.023 339.239)" fill="#334822"/>
<ellipse cx="3.13925" cy="2.48964" rx="3.13925" ry="2.48964" transform="matrix(-0.934576 -0.355765 -0.313101 0.94972 421.487 337.111)" fill="#334822"/>
<ellipse cx="3.04285" cy="2.68132" rx="3.04285" ry="2.68132" transform="matrix(-0.934576 0.355765 -0.313101 -0.94972 448.367 340.13)" fill="#578036"/>
<ellipse cx="2.35444" cy="1.81531" rx="2.35444" ry="1.81531" transform="matrix(-0.934576 0.355765 -0.313101 -0.94972 451.838 339.776)" fill="#578036"/>
<ellipse cx="2.02857" cy="1.60879" rx="2.02857" ry="1.60879" transform="matrix(-0.934576 0.355765 -0.313101 -0.94972 447.023 336.056)" fill="#334822"/>
<ellipse cx="3.13925" cy="2.48964" rx="3.13925" ry="2.48964" transform="matrix(-0.934576 0.355765 -0.313101 -0.94972 450.487 338.184)" fill="#334822"/>
<path d="M501 133L517.5 30L651 38" stroke="#414141" stroke-width="10"/>
<path d="M518 133L532.5 47.5L647 56" stroke="#414141" stroke-width="10"/>
<ellipse cx="4.13034" cy="2.24194" rx="4.13034" ry="2.24194" transform="matrix(0.982761 -0.184882 0.183666 0.982989 416.236 288.066)" fill="#578036"/>
<ellipse cx="2.16164" cy="1.9569" rx="2.16164" ry="1.9569" transform="matrix(0.982761 -0.184882 0.183666 0.982989 413 286.041)" fill="#578036"/>
<ellipse cx="2.36549" cy="1.9273" rx="2.36549" ry="1.9273" transform="matrix(0.982761 -0.184882 0.183666 0.982989 416.825 291.211)" fill="#334822"/>
<ellipse cx="3.66065" cy="2.98254" rx="3.66065" ry="2.98254" transform="matrix(0.982761 -0.184882 0.183666 0.982989 413.106 287.98)" fill="#334822"/>
<ellipse cx="3.24576" cy="2.24194" rx="3.24576" ry="2.24194" transform="matrix(0.982761 -0.184882 0.183666 0.982989 447.236 288.066)" fill="#578036"/>
<ellipse cx="2.16164" cy="2.5603" rx="2.16164" ry="2.5603" transform="matrix(0.982761 -0.184882 0.183666 0.982989 443.778 284.854)" fill="#578036"/>
<ellipse cx="2.51577" cy="2.98254" rx="2.51577" ry="2.98254" transform="matrix(0.982761 -0.184882 0.183666 0.982989 444.106 287.98)" fill="#334822"/>
<ellipse cx="2.71183" cy="2.24194" rx="2.71183" ry="2.24194" transform="matrix(0.982761 0.184882 0.183666 -0.982989 447.236 269.777)" fill="#578036"/>
<ellipse cx="2.16164" cy="2.5603" rx="2.16164" ry="2.5603" transform="matrix(0.982761 0.184882 0.183666 -0.982989 443.778 272.989)" fill="#578036"/>
<ellipse cx="3.61653" cy="2.20557" rx="3.61653" ry="2.20557" transform="matrix(0.982761 0.184882 0.183666 -0.982989 444 270.336)" fill="#334822"/>
<ellipse cx="388.624" cy="338.181" rx="2.4887" ry="2.07392" transform="rotate(121.173 388.624 338.181)" fill="#578036"/>
<ellipse cx="392.937" cy="334.203" rx="2.4887" ry="2.07392" transform="rotate(121.173 392.937 334.203)" fill="#578036"/>
<ellipse cx="386.923" cy="336.183" rx="1.65913" ry="1.24435" transform="rotate(121.173 386.923 336.183)" fill="#334822"/>
<ellipse cx="389.986" cy="335.128" rx="3.31827" ry="2.4887" transform="rotate(121.173 389.986 335.128)" fill="#334822"/>
<ellipse cx="319" cy="258" rx="5" ry="4" fill="#49821B"/>
<ellipse cx="336" cy="264.483" rx="3" ry="2.5" transform="rotate(-90.969 336 264.483)" fill="#49821B"/>
<ellipse cx="288" cy="224.5" rx="3" ry="2.5" fill="#49821B"/>
<ellipse cx="275.5" cy="231" rx="4.5" ry="2" fill="#49821B"/>
<circle cx="291" cy="227" r="1" fill="#49821B"/>
<ellipse cx="279.5" cy="233" rx="1.5" ry="1" fill="#49821B"/>
<ellipse cx="195" cy="192" rx="3" ry="2" fill="#3A5C1F"/>
<ellipse cx="195.549" cy="182.032" rx="3" ry="2" transform="rotate(-34.178 195.549 182.032)" fill="#3A5C1F"/>
<ellipse cx="197.5" cy="186" rx="4.5" ry="3" fill="#3A5C1F"/>
<ellipse cx="195.5" cy="184" rx="2.5" ry="2" transform="rotate(-26.4752 195.5 184)" fill="#49821B"/>
<ellipse cx="220.009" cy="171.648" rx="1.79682" ry="1.34761" transform="rotate(10.3369 220.009 171.648)" fill="#3A5C1F"/>
<ellipse cx="237.01" cy="173.648" rx="1.79682" ry="1.34761" transform="rotate(138.219 237.01 173.648)" fill="#426D20"/>
<ellipse cx="225.238" cy="176.202" rx="1.79682" ry="1.34761" transform="rotate(138.219 225.238 176.202)" fill="#426D20"/>
<path d="M66 535.5L78 491.5L121 481L123 470L137 373.5L144 353V298.5L155 252L184.5 208.5V189V149L211.5 136.5H256L336 139H349.5M516 150.5L520.5 130" stroke="#777777" stroke-width="5" stroke-dasharray="10 10"/>
<path d="M45 560.5L67 479.5L133 468" stroke="#343434" stroke-width="10"/>
<path d="M130.5 495L139.5 375L148 377.5L284 382L279 499L130.5 495Z" fill="#434343" stroke="black" stroke-width="6"/>
<path d="M208 451C217.389 451 225 443.389 225 434C225 424.611 217.389 417 208 417C198.611 417 191 424.611 191 434C191 443.389 198.611 451 208 451Z" stroke="black" stroke-width="4" stroke-linecap="round" stroke-linejoin="round"/>
<path d="M203.875 441.209V425.792H210.042C211.268 425.792 212.445 426.279 213.312 427.147C214.179 428.014 214.667 429.19 214.667 430.417C214.667 431.644 214.179 432.82 213.312 433.687C212.445 434.555 211.268 435.042 210.042 435.042H203.875" stroke="black" stroke-width="3.5" stroke-linecap="round" stroke-linejoin="round"/>
<rect x="197" y="230" width="22" height="8" rx="1.2" fill="#363636"/>
<rect x="216" y="247" width="22" height="8" rx="1.2" fill="#363636"/>
<rect x="184" y="247" width="22" height="8" rx="1.2" fill="#363636"/>
<rect x="231" y="230" width="22" height="8" rx="1.2" fill="#363636"/>
<rect x="251" y="247" width="22" height="8" rx="1.2" fill="#363636"/>
<path d="M119 486L121.5 508.5H197H288L294.5 382H326.5" stroke="#777777" stroke-width="5" stroke-dasharray="10 10"/>
</svg>
